<?xml version="1.0" standalone="no"?>
<!DOCTYPE svg PUBLIC "-//W3C//DTD SVG 20010904//EN"
 "http://www.w3.org/TR/2001/REC-SVG-20010904/DTD/svg10.dtd">
<svg version="1.0" xmlns="http://www.w3.org/2000/svg"
 width="1500.000000pt" height="1500.000000pt" viewBox="0 0 1500.000000 1500.000000"
 preserveAspectRatio="xMidYMid meet">
<metadata>
Created by potrace 1.11, written by Peter Selinger 2001-2013
</metadata>
<g transform="translate(0.000000,1500.000000) scale(0.100000,-0.100000)"
fill="#000000" stroke="none">
<path d="M6102 14988 c-5 -7 -13 -24 -17 -38 -25 -83 -140 -260 -305 -470 -50
-63 -102 -136 -116 -161 l-26 -47 -146 -51 c-81 -29 -156 -56 -167 -61 -41
-19 -149 -60 -157 -60 -9 0 -4 236 8 351 3 35 14 104 24 154 17 82 20 189 6
202 -12 12 -88 -51 -239 -197 -172 -167 -263 -275 -355 -421 -70 -111 -144
-256 -160 -314 -37 -132 -48 -160 -67 -170 -63 -32 -362 -225 -467 -302 l-48
-35 -10 27 c-5 14 -10 31 -10 36 0 5 -29 107 -65 226 -40 130 -72 258 -81 320
-18 129 -28 174 -64 291 -26 82 -53 132 -65 120 -19 -19 -69 -158 -100 -278
-51 -202 -88 -327 -155 -531 -64 -190 -61 -181 -89 -319 -26 -131 -30 -164
-37 -330 l-6 -145 -89 -90 c-48 -49 -102 -106 -120 -125 -26 -29 -33 -32 -40
-20 -96 157 -142 225 -238 348 -162 209 -200 270 -266 435 l-31 78 -25 -25
c-32 -32 -82 -189 -95 -301 -4 -27 -8 -53 -10 -56 -7 -12 -17 -190 -17 -294 0
-108 9 -257 18 -305 3 -13 7 -42 11 -65 14 -98 98 -445 116 -478 7 -14 -7 -42
-70 -135 -77 -114 -246 -388 -254 -414 -5 -15 -18 -6 -164 121 -147 126 -143
123 -226 182 -40 28 -130 110 -199 182 -122 127 -126 130 -138 108 -22 -40
-13 -102 37 -266 51 -165 90 -301 97 -336 2 -12 7 -29 10 -39 3 -10 8 -28 10
-41 17 -86 121 -407 171 -527 l43 -102 -64 -160 c-135 -335 -250 -703 -330
-1050 -6 -26 -37 -164 -41 -185 -2 -11 -6 -31 -9 -45 -5 -23 -13 -68 -21 -115
-2 -11 -8 -42 -13 -70 -9 -46 -16 -86 -26 -155 -18 -117 -27 -182 -31 -220 -2
-25 -7 -59 -9 -76 -4 -29 -11 -92 -20 -179 -2 -22 -6 -83 -10 -135 -8 -130
-14 -164 -27 -169 -7 -2 -22 -14 -35 -27 -34 -34 -30 -76 9 -109 30 -25 32
-31 30 -84 -1 -31 -2 -95 -2 -143 0 -48 -5 -90 -10 -93 -5 -3 -58 -10 -117
-15 -130 -12 -193 -39 -270 -116 -60 -60 -69 -96 -30 -131 53 -49 114 -56 259
-30 56 10 78 11 78 3 0 -24 -53 -154 -83 -205 -52 -87 -146 -166 -272 -227
-126 -61 -150 -78 -164 -117 -15 -40 -14 -117 2 -118 6 0 30 -3 52 -5 22 -2
61 -6 88 -7 26 -2 52 -8 58 -14 6 -6 11 -44 11 -85 0 -114 -28 -184 -137 -348
-101 -151 -105 -163 -84 -247 l12 -45 49 6 c27 4 60 12 73 18 14 6 27 9 29 7
2 -2 6 -26 9 -54 3 -27 12 -80 21 -116 25 -108 27 -120 32 -204 6 -81 30 -191
58 -255 8 -19 34 -56 58 -82 37 -39 49 -46 69 -41 32 9 46 24 68 74 34 74 14
186 -54 309 -61 110 -76 150 -73 189 l3 40 50 -26 c80 -41 117 -51 151 -41 74
19 83 105 18 161 -114 98 -214 189 -237 217 -39 46 -44 94 -21 213 2 12 18 50
35 85 l30 62 56 -65 c57 -67 84 -82 128 -71 90 23 88 148 -5 291 -92 142 -97
212 -24 364 l36 74 34 -53 c24 -37 34 -67 35 -95 0 -22 2 -53 4 -70 2 -16 6
-64 9 -105 3 -41 8 -84 10 -95 2 -11 7 -56 11 -100 4 -44 9 -89 11 -100 2 -10
6 -37 10 -60 16 -111 66 -400 71 -408 14 -23 24 -710 11 -807 -22 -158 -76
-368 -146 -560 -3 -8 -6 -19 -8 -25 -1 -5 -5 -18 -9 -27 -4 -10 -4 -18 -1 -18
11 0 80 30 86 38 3 4 32 32 65 62 82 76 182 184 238 259 39 52 48 60 54 44 3
-10 40 -99 80 -198 59 -143 73 -187 69 -215 -25 -161 -26 -438 -3 -545 3 -11
8 -40 12 -65 16 -103 78 -329 150 -550 41 -124 48 -158 51 -240 1 -52 -2 -124
-8 -159 -9 -58 -8 -66 8 -78 30 -22 53 -15 99 33 132 135 258 345 295 493 l11
44 47 -69 c36 -54 146 -200 263 -350 6 -7 -1 -25 -16 -48 -59 -87 -119 -217
-171 -373 -15 -44 -83 -224 -139 -368 -13 -33 -40 -103 -61 -155 -52 -137
-109 -253 -169 -345 -90 -140 -86 -132 -71 -144 33 -28 57 -20 169 56 294 200
443 317 582 457 124 125 258 298 301 389 10 20 21 36 25 35 3 -2 56 -50 117
-107 77 -72 109 -108 102 -116 -34 -41 -168 -389 -184 -480 -3 -16 -10 -51
-16 -79 -32 -159 -34 -350 -5 -531 7 -46 21 -110 50 -220 44 -175 37 -339 -21
-494 -27 -70 -31 -102 -20 -138 6 -19 10 -21 32 -11 34 16 174 207 217 298 34
72 85 159 232 395 117 188 202 386 245 569 26 113 30 133 36 196 3 30 7 57 9
59 3 3 214 -130 238 -149 4 -4 9 -17 12 -29 2 -12 6 -30 9 -39 3 -9 8 -35 11
-57 3 -23 7 -52 10 -65 3 -13 7 -42 10 -65 14 -93 18 -114 35 -200 36 -175
102 -335 198 -478 60 -90 110 -148 201 -232 225 -208 287 -281 373 -442 41
-77 83 -126 103 -120 22 8 34 94 29 222 -5 138 -11 225 -19 265 -3 13 -7 42
-11 65 -3 22 -14 85 -25 140 -29 144 -30 148 -34 155 -2 3 -13 42 -25 86 -38
146 -84 278 -117 340 l-32 61 141 -60 142 -60 110 -114 c60 -63 148 -143 195
-178 144 -107 344 -201 472 -221 86 -14 409 -7 437 10 27 15 302 27 402 16 87
-9 115 -1 115 33 -1 25 2 26 40 22 117 -12 155 -15 258 -22 210 -14 863 -7
1087 12 25 2 83 6 130 9 47 4 105 8 130 11 25 2 68 7 95 9 120 12 162 17 185
21 14 3 50 7 80 10 30 3 66 8 80 10 51 7 116 17 135 21 11 2 40 6 64 9 24 3
82 12 128 20 45 8 122 22 171 30 104 19 102 18 226 44 54 12 108 23 120 26 11
2 30 6 41 9 11 2 72 17 135 31 234 54 669 170 854 229 22 7 68 21 101 31 282
84 1018 351 1240 450 17 7 62 27 100 44 l70 30 -2 113 c-1 62 -5 185 -7 273
-6 183 -6 965 -1 1285 2 118 6 348 9 510 3 162 8 426 11 585 9 510 15 611 40
725 4 14 8 36 11 50 12 63 60 193 102 272 78 149 201 267 372 354 41 21 77 39
80 40 3 0 12 4 20 7 42 18 193 61 295 83 48 11 244 44 290 49 28 3 57 8 65 10
8 2 44 7 80 11 36 4 74 8 85 9 11 2 44 6 74 10 30 4 61 8 70 10 9 1 51 6 94
10 76 7 77 8 78 36 2 40 3 46 10 53 7 7 196 -27 205 -37 16 -15 16 -176 0
-251 -24 -114 -32 -129 -86 -138 -42 -8 -337 -66 -370 -73 -8 -2 -80 -18 -160
-35 -346 -74 -646 -215 -837 -393 -93 -88 -189 -251 -242 -415 -28 -84 -34
-119 -46 -247 -3 -33 -7 -80 -10 -105 -2 -25 -7 -76 -10 -115 -5 -66 -9 -110
-20 -245 -3 -30 -7 -89 -10 -130 -3 -41 -7 -100 -10 -130 -3 -30 -7 -86 -10
-125 -2 -38 -8 -113 -12 -165 -9 -119 -9 -357 1 -560 10 -209 11 -435 2 -610
-11 -194 -14 -264 -21 -470 -10 -291 -18 -428 -29 -487 -3 -12 -8 -53 -11 -90
-4 -37 -11 -76 -16 -85 -19 -35 -153 -97 -487 -224 -144 -55 -176 -66 -547
-188 -187 -61 -443 -129 -570 -151 -16 -3 -37 -8 -45 -10 -8 -2 -26 -6 -40 -9
-14 -2 -90 -19 -170 -36 -80 -18 -152 -33 -160 -35 -8 -2 -78 -17 -155 -35
-77 -17 -169 -38 -205 -45 -89 -20 -478 -96 -514 -101 -16 -2 -52 -10 -80 -18
-57 -16 -138 -32 -206 -41 -25 -3 -56 -8 -70 -10 -28 -4 -114 -13 -205 -20
-33 -3 -80 -7 -105 -10 -42 -4 -77 -7 -220 -20 -257 -22 -317 -24 -730 -24
-511 0 -789 7 -950 24 -19 2 -69 7 -110 10 -86 7 -400 55 -470 71 -117 28
-439 46 -441 25 -1 -6 -1 -18 -1 -26 0 -8 0 -19 1 -24 1 -11 113 -56 166 -66
22 -5 45 -9 50 -10 6 -2 28 -6 50 -9 22 -4 47 -8 55 -11 8 -2 32 -6 53 -9 20
-3 54 -9 75 -12 20 -3 44 -7 52 -9 8 -2 41 -7 73 -10 32 -4 66 -8 76 -10 10
-2 54 -6 97 -10 43 -4 90 -8 104 -10 22 -3 76 -8 250 -20 30 -3 96 -7 145 -10
50 -3 113 -8 140 -10 197 -17 304 -20 735 -19 447 0 753 7 840 19 19 2 60 7
90 10 30 4 100 15 155 25 55 11 111 21 125 24 14 2 55 11 93 20 37 9 82 18
100 21 40 8 499 108 622 136 50 12 101 23 115 26 22 4 104 23 340 79 36 9 76
18 90 20 154 26 475 109 655 169 94 31 217 67 275 81 133 32 374 110 555 181
152 59 419 185 449 211 54 49 54 51 71 772 3 135 8 286 12 335 4 50 5 266 4
480 -8 984 -6 1178 14 1385 2 19 6 76 10 125 16 204 26 317 31 340 2 11 9 47
14 80 14 85 35 150 75 227 101 199 237 310 546 446 112 50 453 149 570 166 20
3 42 8 50 10 15 6 216 35 344 51 136 16 148 32 160 210 6 87 12 152 20 225 14
128 18 161 20 210 4 93 -15 109 -139 116 -44 3 -103 6 -131 8 -27 2 -69 4 -91
5 -37 1 -41 3 -38 24 6 36 10 387 4 388 -12 3 -145 7 -475 13 -192 4 -444 9
-560 11 -115 2 -383 7 -595 10 -212 4 -468 8 -570 10 -102 2 -329 6 -505 10
-176 3 -428 7 -560 10 -132 3 -368 7 -525 10 -157 3 -404 8 -550 10 -264 6
-392 8 -1092 20 l-368 7 -1 -109 c0 -59 -2 -213 -5 -340 -4 -185 -2 -233 8
-234 17 0 91 -8 155 -15 l53 -5 -3 -188 c-2 -155 1 -191 13 -206 23 -28 88
-53 155 -60 33 -3 71 -8 85 -10 14 -2 52 -6 85 -10 33 -4 74 -8 90 -10 17 -3
68 -9 115 -15 47 -6 96 -13 110 -15 14 -2 45 -7 70 -10 73 -11 80 -12 186 -29
56 -9 108 -18 115 -20 8 -3 31 -8 53 -11 21 -3 41 -7 45 -9 3 -2 24 -7 46 -10
110 -18 283 -78 395 -139 167 -89 369 -282 385 -367 18 -91 21 -382 11 -830
-3 -102 -8 -318 -11 -480 -4 -162 -8 -351 -10 -420 -4 -152 -15 -432 -20 -480
-2 -19 -6 -73 -10 -120 -3 -47 -8 -96 -10 -110 -2 -14 -7 -54 -10 -90 -4 -36
-9 -72 -10 -81 -2 -9 -6 -40 -10 -69 -4 -29 -8 -60 -10 -69 -2 -9 -6 -44 -10
-76 -7 -55 -11 -64 -58 -108 -102 -97 -408 -276 -612 -359 -367 -148 -633
-227 -960 -283 -33 -6 -179 -25 -229 -30 -110 -12 -137 -14 -236 -21 -184 -13
-597 -7 -740 11 -19 2 -61 6 -93 9 -70 7 -224 31 -327 51 -41 8 -84 17 -95 19
-209 42 -559 154 -755 243 -320 146 -651 351 -917 569 -161 133 -306 270 -299
283 4 6 17 206 20 311 1 68 10 68 111 -1 40 -27 81 -49 92 -49 35 0 56 34 49
80 -3 22 -8 68 -12 103 -3 34 -8 65 -10 68 -2 3 -6 34 -9 70 -4 35 -8 73 -10
85 -3 19 0 20 43 13 54 -9 108 -25 206 -63 38 -15 71 -25 73 -22 3 3 -7 27
-22 53 -26 46 -128 152 -264 276 -35 32 -62 59 -60 61 9 7 95 60 137 83 26 15
61 34 77 44 17 10 47 28 67 39 20 11 44 30 52 42 14 20 14 24 -1 40 -9 10 -51
32 -95 50 -43 18 -93 44 -109 58 l-31 25 94 75 c51 41 95 77 98 80 3 3 35 29
72 58 68 54 84 78 73 110 -7 24 -47 42 -66 32 -54 -30 -213 -11 -379 45 -98
33 -297 88 -365 99 -16 3 -41 8 -55 10 -14 3 -41 7 -60 10 -19 3 -57 8 -85 12
-27 4 -97 8 -155 7 -152 0 -280 -38 -410 -121 -30 -19 -57 -38 -60 -41 -14
-19 -80 -51 -93 -45 -8 3 -24 26 -35 52 -27 63 -110 293 -133 366 -16 54 -17
58 -1 53 9 -3 53 -16 97 -30 44 -13 98 -27 120 -31 22 -3 51 -8 65 -10 222
-44 578 -40 815 9 102 20 122 24 190 30 33 3 69 8 80 10 11 2 23 4 27 4 4 1
15 12 24 26 14 21 14 28 3 41 -13 16 -153 114 -163 114 -2 0 -33 17 -67 38
-35 22 -91 54 -124 72 -33 18 -143 80 -245 138 -314 178 -373 205 -525 237
-11 3 -31 7 -45 10 -43 9 -63 13 -115 19 -27 4 -57 9 -65 11 -25 6 -100 14
-190 21 -47 3 -85 6 -86 7 -3 3 -43 200 -54 267 -6 36 -13 77 -16 92 l-5 26
133 -39 c262 -78 629 -171 674 -171 56 0 75 10 70 39 -7 34 -17 45 -89 89 -85
52 -163 128 -238 235 -88 124 -176 233 -254 313 -16 17 -55 60 -85 96 -68 80
-210 220 -267 263 -23 18 -43 41 -44 52 0 11 -2 34 -4 50 -6 58 -18 462 -18
604 l0 145 29 24 c122 103 184 182 238 303 57 130 63 199 19 213 -10 4 -28 29
-40 56 l-22 50 32 33 c61 60 108 136 141 224 22 61 27 89 31 176 5 120 -4 145
-138 398 -30 57 -52 110 -50 117 7 18 31 15 113 -13 40 -14 82 -25 92 -25 27
0 74 26 82 45 19 50 -93 151 -186 169 -53 9 -154 38 -161 45 -5 5 -5 25 -2 45
6 31 14 39 54 57 79 35 118 34 220 -5 50 -19 108 -40 130 -46 67 -18 162 -22
207 -10 38 11 42 15 38 37 -8 40 -40 97 -66 113 -13 8 -59 31 -103 51 -44 19
-81 42 -83 50 -5 26 65 87 115 102 62 18 100 9 233 -53 127 -59 181 -71 266
-57 64 11 96 64 69 117 -21 41 -107 114 -170 143 -30 15 -55 31 -55 37 0 5 16
28 36 49 25 29 52 45 97 60 145 47 196 32 337 -100 57 -53 190 -138 227 -145
46 -9 81 9 98 49 16 40 10 90 -15 132 -17 27 -115 120 -162 153 -10 7 -18 17
-18 21 0 13 122 44 174 43 29 0 108 -14 178 -32 108 -27 132 -30 166 -21 54
15 76 50 68 108 -8 62 -21 81 -69 102 -76 34 -117 43 -221 46 -114 3 -159 17
-164 52 -2 12 10 52 26 90 38 87 72 197 72 233 0 37 -37 78 -74 84 -70 12
-114 -46 -131 -174 -28 -214 -127 -349 -257 -350 l-36 0 3 119 c3 129 -4 154
-50 171 -34 13 -91 -6 -132 -43 -32 -30 -56 -89 -78 -192 -14 -63 -60 -189
-78 -211 -19 -25 -72 -54 -98 -54 -9 0 -10 14 -4 53 15 94 13 154 -6 223 l-19
67 35 33 c29 27 188 142 388 281 56 39 62 71 20 101 -41 28 -106 24 -343 -23
-14 -3 -63 -12 -110 -20 -47 -8 -139 -26 -204 -40 -66 -13 -121 -23 -123 -21
-4 4 -2 10 73 191 47 112 48 114 87 110 269 -29 409 -21 567 32 41 13 143 61
225 106 269 146 368 196 462 232 50 20 94 43 97 51 6 15 -2 44 -13 45 -3 0
-13 2 -22 4 -42 8 -136 15 -259 20 -74 3 -148 7 -165 10 -16 2 -57 6 -90 10
-33 4 -76 11 -95 15 -19 5 -46 11 -60 14 -14 2 -79 16 -145 29 -66 14 -144 29
-172 34 l-53 8 87 133 c100 153 69 140 243 102 104 -23 242 -48 305 -56 22 -3
45 -7 52 -9 28 -9 165 -19 248 -19 108 1 165 9 253 36 125 38 319 87 368 93
27 4 60 8 74 10 26 5 121 12 235 20 39 2 80 8 93 12 l23 9 -23 34 c-17 25 -85
73 -235 165 -329 203 -462 261 -663 291 -19 3 -46 7 -60 10 -49 8 -166 17
-247 18 -46 1 -83 4 -83 7 0 8 179 173 268 248 168 141 193 154 238 128 22
-13 120 -116 179 -187 82 -101 148 -151 276 -211 8 -4 51 -15 95 -25 94 -22
318 -25 405 -6 30 7 68 15 83 18 43 7 183 58 256 92 177 81 333 107 530 89 50
-5 115 16 124 39 11 28 -103 185 -199 277 -22 21 -86 72 -142 114 -57 41 -103
77 -103 81 0 3 14 27 31 53 31 48 102 109 174 149 22 12 60 34 84 48 l44 25
-49 25 c-57 29 -169 69 -207 74 -48 7 -40 16 20 23 32 4 67 9 77 11 11 2 58 6
105 10 47 3 97 8 111 10 30 5 494 5 565 -1 101 -7 201 -16 225 -20 14 -2 45
-6 70 -9 25 -3 56 -8 70 -10 39 -7 141 -25 180 -31 128 -21 389 -101 553 -169
337 -140 715 -390 978 -647 52 -52 73 -73 45 -48 -75 68 -284 219 -303 219 -3
0 -17 8 -31 19 -42 29 -218 119 -317 163 -178 79 -511 177 -685 203 -24 4 -47
8 -50 10 -3 1 -30 6 -60 9 -30 4 -66 8 -80 11 -263 43 -864 66 -1003 37 -40
-8 -75 -19 -79 -26 -29 -44 18 -63 182 -70 153 -7 249 -13 365 -21 44 -3 121
-7 170 -10 50 -3 115 -7 145 -10 30 -3 82 -7 115 -10 33 -3 83 -8 110 -11 28
-3 66 -7 85 -9 200 -22 251 -35 498 -127 337 -125 488 -199 675 -331 84 -59
107 -78 232 -198 55 -53 145 -139 199 -190 153 -144 230 -225 328 -339 188
-219 241 -297 337 -495 64 -130 131 -275 131 -281 0 -3 10 -26 21 -51 21 -47
109 -269 114 -288 1 -5 6 -21 12 -35 50 -123 288 -875 308 -974 3 -10 12 -44
21 -75 9 -31 18 -63 20 -71 2 -8 20 -81 40 -162 l37 -148 98 0 c84 0 98 -2
103 -17 3 -10 19 -81 36 -158 17 -77 35 -154 41 -172 12 -39 77 -99 115 -107
53 -11 529 3 611 19 10 2 28 4 39 4 44 2 79 128 89 321 4 69 8 145 10 170 21
238 31 869 25 1685 -1 143 1 292 4 330 7 99 7 581 -1 695 -3 52 -5 133 -3 180
5 154 4 473 -3 605 -13 241 -19 350 -22 385 -2 19 -4 82 -5 140 -1 94 -5 112
-32 173 -31 66 -31 67 -72 69 -59 2 -163 -1 -218 -7 l-48 -4 -1 37 c0 20 0 90
0 155 l1 117 -27 1 c-16 0 -122 3 -238 5 -115 2 -270 5 -342 7 -73 2 -136 1
-141 -2 -4 -3 -17 -22 -29 -41 -40 -67 -354 -565 -361 -572 -4 -4 -61 25 -127
64 -234 138 -586 317 -766 388 -26 10 -66 28 -90 39 -121 55 -451 174 -659
237 -195 60 -499 129 -705 160 -27 4 -57 9 -65 10 -8 2 -40 6 -70 9 -30 3 -62
8 -70 10 -8 2 -40 6 -71 10 -31 3 -65 7 -75 9 -11 2 -64 7 -119 11 -55 3 -118
8 -140 10 -287 24 -862 24 -1130 0 -22 -2 -74 -6 -115 -9 -78 -7 -138 -14
-180 -21 -72 -12 -152 -16 -146 -7 5 8 -11 72 -18 72 -1 0 -40 -25 -87 -55
-46 -31 -93 -58 -104 -60 -112 -22 -232 -45 -241 -45 -6 0 -16 30 -23 68 -37
193 -88 355 -138 435 -24 38 -43 46 -61 25z m6453 -1253 c32 -4 67 -11 78 -17
25 -13 44 -60 51 -128 4 -30 9 -66 11 -80 5 -25 8 -92 22 -505 12 -374 4
-2141 -11 -2350 -2 -27 -7 -131 -11 -230 -4 -99 -8 -205 -10 -235 -2 -30 -6
-118 -9 -195 -4 -77 -9 -171 -12 -210 -3 -38 -7 -90 -9 -115 -4 -46 -13 -144
-21 -215 -2 -22 -9 -70 -16 -108 -10 -58 -15 -68 -35 -73 -48 -13 -265 -7
-423 11 -14 2 -35 3 -48 4 -37 2 -71 71 -88 176 -3 22 -8 43 -10 47 -2 3 -7
26 -9 51 l-6 44 219 -3 218 -4 1 2065 c1 1136 4 2069 8 2075 3 5 16 8 28 5 12
-2 49 -7 82 -10z m-8484 -3292 c1 -60 -2 -142 -7 -171 -10 -58 -56 -132 -110
-178 -30 -26 -56 -45 -57 -43 -2 2 -9 32 -16 67 -15 80 -28 107 -55 120 -25
11 -57 1 -102 -33 l-33 -25 9 30 c13 44 10 41 171 160 169 123 198 134 200 73z
m4699 -4158 c25 -3 56 -8 70 -10 14 -2 49 -7 79 -10 30 -4 63 -9 75 -11 12 -3
41 -7 66 -10 39 -4 155 -23 240 -39 49 -9 176 -38 230 -52 30 -8 73 -19 95
-24 68 -16 236 -78 320 -118 191 -89 314 -200 390 -353 53 -106 58 -134 18
-96 -61 56 -240 156 -353 198 -19 7 -48 18 -65 25 -30 13 -126 43 -161 49 -11
2 -37 8 -59 14 -22 6 -78 15 -125 22 -47 6 -134 22 -195 35 -60 13 -126 26
-145 29 -61 9 -112 17 -133 22 -19 3 -129 18 -222 30 -45 5 -126 17 -137 20
-5 1 -19 2 -33 3 -38 2 -61 68 -71 210 l-6 83 38 -6 c22 -3 59 -9 84 -11z"/>
</g>
</svg>
